<svg width="24" height="24" viewBox="0 0 24 24" fill="none" xmlns="http://www.w3.org/2000/svg">
<path d="M20.0306 7.71938L14.7806 2.46938C14.7109 2.39975 14.6282 2.34454 14.5371 2.3069C14.4461 2.26926 14.3485 2.24992 14.25 2.25H5.25C4.85218 2.25 4.47064 2.40804 4.18934 2.68934C3.90804 2.97064 3.75 3.35218 3.75 3.75V20.25C3.75 20.6478 3.90804 21.0294 4.18934 21.3107C4.47064 21.592 4.85218 21.75 5.25 21.75H18.75C19.1478 21.75 19.5294 21.592 19.8107 21.3107C20.092 21.0294 20.25 20.6478 20.25 20.25V8.25C20.2501 8.15148 20.2307 8.05391 20.1931 7.96286C20.1555 7.87182 20.1003 7.78908 20.0306 7.71938ZM15 4.81031L17.6897 7.5H15V4.81031ZM18.75 20.25H5.25V3.75H13.5V8.25C13.5 8.44891 13.579 8.63968 13.7197 8.78033C13.8603 8.92098 14.0511 9 14.25 9H18.75V20.25ZM14.7806 12.5306L13.0603 14.25L14.7806 15.9694C14.8503 16.0391 14.9056 16.1218 14.9433 16.2128C14.981 16.3039 15.0004 16.4015 15.0004 16.5C15.0004 16.5985 14.981 16.6961 14.9433 16.7872C14.9056 16.8782 14.8503 16.9609 14.7806 17.0306C14.7109 17.1003 14.6282 17.1556 14.5372 17.1933C14.4461 17.231 14.3485 17.2504 14.25 17.2504C14.1515 17.2504 14.0539 17.231 13.9628 17.1933C13.8718 17.1556 13.7891 17.1003 13.7194 17.0306L12 15.3103L10.2806 17.0306C10.2109 17.1003 10.1282 17.1556 10.0372 17.1933C9.94613 17.231 9.84855 17.2504 9.75 17.2504C9.65145 17.2504 9.55387 17.231 9.46283 17.1933C9.37178 17.1556 9.28906 17.1003 9.21937 17.0306C9.14969 16.9609 9.09442 16.8782 9.0567 16.7872C9.01899 16.6961 8.99958 16.5985 8.99958 16.5C8.99958 16.4015 9.01899 16.3039 9.0567 16.2128C9.09442 16.1218 9.14969 16.0391 9.21937 15.9694L10.9397 14.25L9.21937 12.5306C9.07864 12.3899 8.99958 12.199 8.99958 12C8.99958 11.801 9.07864 11.6101 9.21937 11.4694C9.36011 11.3286 9.55098 11.2496 9.75 11.2496C9.94902 11.2496 10.1399 11.3286 10.2806 11.4694L12 13.1897L13.7194 11.4694C13.7891 11.3997 13.8718 11.3444 13.9628 11.3067C14.0539 11.269 14.1515 11.2496 14.25 11.2496C14.3485 11.2496 14.4461 11.269 14.5372 11.3067C14.6282 11.3444 14.7109 11.3997 14.7806 11.4694C14.8503 11.5391 14.9056 11.6218 14.9433 11.7128C14.981 11.8039 15.0004 11.9015 15.0004 12C15.0004 12.0985 14.981 12.1961 14.9433 12.2872C14.9056 12.3782 14.8503 12.4609 14.7806 12.5306Z" fill="#B70000"/>
</svg>
