<svg width="20" height="23" viewBox="0 0 20 23" fill="none" xmlns="http://www.w3.org/2000/svg">
<path d="M17.8318 17.7338C17.3104 16.8355 16.5352 14.294 16.5352 10.9745C16.5352 8.98102 15.7433 7.06917 14.3337 5.65954C12.9241 4.24992 11.0122 3.45801 9.01873 3.45801C7.02523 3.45801 5.11337 4.24992 3.70375 5.65954C2.29413 7.06917 1.50221 8.98102 1.50221 10.9745C1.50221 14.2949 0.726134 16.8355 0.204676 17.7338C0.0715116 17.9621 0.000916353 18.2215 8.861e-06 18.4859C-0.000898631 18.7502 0.0679139 19.0101 0.199507 19.2394C0.3311 19.4687 0.52082 19.6592 0.749534 19.7917C0.978248 19.9243 1.23787 19.9942 1.50221 19.9943H5.33658C5.50999 20.8429 5.97118 21.6056 6.64213 22.1533C7.31309 22.701 8.15262 23.0001 9.01873 23.0001C9.88485 23.0001 10.7244 22.701 11.3953 22.1533C12.0663 21.6056 12.5275 20.8429 12.7009 19.9943H16.5352C16.7995 19.994 17.059 19.924 17.2876 19.7914C17.5162 19.6588 17.7058 19.4682 17.8373 19.239C17.9687 19.0098 18.0375 18.7499 18.0365 18.4856C18.0356 18.2214 17.965 17.962 17.8318 17.7338ZM9.01873 21.4977C8.55254 21.4975 8.09785 21.3529 7.71724 21.0837C7.33664 20.8144 7.04883 20.4339 6.89344 19.9943H11.144C10.9886 20.4339 10.7008 20.8144 10.3202 21.0837C9.93961 21.3529 9.48493 21.4975 9.01873 21.4977ZM1.50221 18.491C2.22568 17.2471 3.00552 14.3645 3.00552 10.9745C3.00552 9.37972 3.63905 7.85024 4.76675 6.72254C5.89444 5.59484 7.42393 4.96131 9.01873 4.96131C10.6135 4.96131 12.143 5.59484 13.2707 6.72254C14.3984 7.85024 15.0319 9.37972 15.0319 10.9745C15.0319 14.3617 15.8099 17.2442 16.5352 18.491H1.50221Z" fill="#B70000"/>
<circle cx="15.032" cy="4.81057" r="4.81057" fill="#B70000"/>
<path d="M14.5829 4.51742V5.02831H11.6526V4.51742H14.5829ZM13.3908 3.26956V6.38187H12.8476V3.26956H13.3908ZM16.9758 2.51204V6.81055H16.4326V3.19029L15.3375 3.5896V3.09927L16.8907 2.51204H16.9758Z" fill="#E6F0F2"/>
</svg>
