<svg width="20" height="20" viewBox="0 0 20 20" fill="none" xmlns="http://www.w3.org/2000/svg">
<path d="M10 0.25C8.07164 0.25 6.18657 0.821828 4.58319 1.89317C2.97982 2.96451 1.73013 4.48726 0.992179 6.26884C0.254225 8.05042 0.061142 10.0108 0.437348 11.9021C0.813554 13.7934 1.74215 15.5307 3.10571 16.8943C4.46928 18.2579 6.20656 19.1865 8.09787 19.5627C9.98919 19.9389 11.9496 19.7458 13.7312 19.0078C15.5127 18.2699 17.0355 17.0202 18.1068 15.4168C19.1782 13.8134 19.75 11.9284 19.75 10C19.7473 7.41498 18.7192 4.93661 16.8913 3.10872C15.0634 1.28084 12.585 0.25273 10 0.25ZM10 18.25C8.36831 18.25 6.77326 17.7661 5.41655 16.8596C4.05984 15.9531 3.00242 14.6646 2.378 13.1571C1.75358 11.6496 1.5902 9.99085 1.90853 8.3905C2.22685 6.79016 3.01259 5.32015 4.16637 4.16637C5.32016 3.01259 6.79017 2.22685 8.39051 1.90852C9.99085 1.59019 11.6497 1.75357 13.1571 2.37799C14.6646 3.00242 15.9531 4.05984 16.8596 5.41655C17.7661 6.77325 18.25 8.3683 18.25 10C18.2475 12.1873 17.3775 14.2843 15.8309 15.8309C14.2843 17.3775 12.1873 18.2475 10 18.25ZM11.125 10C11.125 10.2225 11.059 10.44 10.9354 10.625C10.8118 10.81 10.6361 10.9542 10.4305 11.0394C10.225 11.1245 9.99876 11.1468 9.78053 11.1034C9.5623 11.06 9.36184 10.9528 9.20451 10.7955C9.04718 10.6382 8.94003 10.4377 8.89662 10.2195C8.85321 10.0012 8.87549 9.77505 8.96064 9.56948C9.04579 9.36391 9.18998 9.18821 9.37499 9.0646C9.55999 8.94098 9.7775 8.875 10 8.875C10.2984 8.875 10.5845 8.99353 10.7955 9.2045C11.0065 9.41548 11.125 9.70163 11.125 10ZM15.25 10C15.25 10.2225 15.184 10.44 15.0604 10.625C14.9368 10.81 14.7611 10.9542 14.5555 11.0394C14.35 11.1245 14.1238 11.1468 13.9055 11.1034C13.6873 11.06 13.4868 10.9528 13.3295 10.7955C13.1722 10.6382 13.065 10.4377 13.0216 10.2195C12.9782 10.0012 13.0005 9.77505 13.0856 9.56948C13.1708 9.36391 13.315 9.18821 13.5 9.0646C13.685 8.94098 13.9025 8.875 14.125 8.875C14.4234 8.875 14.7095 8.99353 14.9205 9.2045C15.1315 9.41548 15.25 9.70163 15.25 10ZM7 10C7 10.2225 6.93402 10.44 6.81041 10.625C6.68679 10.81 6.51109 10.9542 6.30552 11.0394C6.09996 11.1245 5.87376 11.1468 5.65553 11.1034C5.4373 11.06 5.23684 10.9528 5.07951 10.7955C4.92217 10.6382 4.81503 10.4377 4.77162 10.2195C4.72821 10.0012 4.75049 9.77505 4.83564 9.56948C4.92079 9.36391 5.06498 9.18821 5.24999 9.0646C5.43499 8.94098 5.6525 8.875 5.875 8.875C6.17337 8.875 6.45952 8.99353 6.6705 9.2045C6.88148 9.41548 7 9.70163 7 10Z" fill="#2F3E47"/>
</svg>
