<svg width="24" height="12" viewBox="0 0 24 12" fill="none" xmlns="http://www.w3.org/2000/svg">
<path d="M19.7143 6C19.7143 6.22733 19.624 6.44535 19.4632 6.60609C19.3025 6.76684 19.0845 6.85714 18.8571 6.85714H5.14286C4.91553 6.85714 4.69751 6.76684 4.53677 6.60609C4.37602 6.44535 4.28571 6.22733 4.28571 6C4.28571 5.77267 4.37602 5.55465 4.53677 5.39391C4.69751 5.23316 4.91553 5.14286 5.14286 5.14286H18.8571C19.0845 5.14286 19.3025 5.23316 19.4632 5.39391C19.624 5.55465 19.7143 5.77267 19.7143 6ZM23.1429 0H0.857143C0.629814 0 0.411797 0.090306 0.251051 0.251051C0.0903058 0.411797 0 0.629814 0 0.857143C0 1.08447 0.0903058 1.30249 0.251051 1.46323C0.411797 1.62398 0.629814 1.71429 0.857143 1.71429H23.1429C23.3702 1.71429 23.5882 1.62398 23.7489 1.46323C23.9097 1.30249 24 1.08447 24 0.857143C24 0.629814 23.9097 0.411797 23.7489 0.251051C23.5882 0.090306 23.3702 0 23.1429 0ZM14.5714 10.2857H9.42857C9.20124 10.2857 8.98323 10.376 8.82248 10.5368C8.66173 10.6975 8.57143 10.9155 8.57143 11.1429C8.57143 11.3702 8.66173 11.5882 8.82248 11.7489C8.98323 11.9097 9.20124 12 9.42857 12H14.5714C14.7988 12 15.0168 11.9097 15.1775 11.7489C15.3383 11.5882 15.4286 11.3702 15.4286 11.1429C15.4286 10.9155 15.3383 10.6975 15.1775 10.5368C15.0168 10.376 14.7988 10.2857 14.5714 10.2857Z" fill="#2F3E47"/>
</svg>
